HIERARCHY
ROOT RootJoint
{
    OFFSET   0.000000   0.000000   0.000000
    CHANNELS 6 Xposition Yposition Zposition Xrotation Yrotation Zrotation
    JOINT pelvis_lowerback
    {
        OFFSET   0.000000   0.093605   0.000000
        CHANNELS 3 Xrotation Yrotation Zrotation
        JOINT lowerback_torso
        {
            OFFSET   0.000000   0.100000   0.000000
            CHANNELS 3 Xrotation Yrotation Zrotation
            JOINT torso_head
            {
                OFFSET   0.000000   0.282350   0.000000
                CHANNELS 3 Xrotation Yrotation Zrotation
                End Site
                {
                    OFFSET   0.000000   0.192650   0.000000
                }
            }
            JOINT rTorso_Clavicle
            {
                OFFSET  -0.001000   0.157500   0.000000
                CHANNELS 3 Xrotation Yrotation Zrotation
                JOINT rShoulder
                {
                    OFFSET  -0.117647   0.000000   0.000000
                    CHANNELS 3 Xrotation Yrotation Zrotation
                    JOINT rElbow
                    {
                        OFFSET  -0.245000   0.000000   0.000000
                        CHANNELS 3 Xrotation Yrotation Zrotation
                        JOINT rWrist
                        {
                            OFFSET  -0.240000   0.000000   0.000000
                            CHANNELS 3 Xrotation Yrotation Zrotation
                            End Site
                            {
                                OFFSET  -0.116353  -0.002500   0.000000
                            }
                        }
                    }
                }
            }
            JOINT lTorso_Clavicle
            {
                OFFSET   0.001000   0.157500   0.000000
                CHANNELS 3 Xrotation Yrotation Zrotation
                JOINT lShoulder
                {
                    OFFSET   0.117647   0.000000   0.000000
                    CHANNELS 3 Xrotation Yrotation Zrotation
                    JOINT lElbow
                    {
                        OFFSET   0.245000   0.000000   0.000000
                        CHANNELS 3 Xrotation Yrotation Zrotation
                        JOINT lWrist
                        {
                            OFFSET   0.240000   0.000000   0.000000
                            CHANNELS 3 Xrotation Yrotation Zrotation
                            End Site
                            {
                                OFFSET   0.116353  -0.002500   0.000000
                            }
                        }
                    }
                }
            }
        }
    }
    JOINT rHip
    {
        OFFSET  -0.100000  -0.051395   0.000000
        CHANNELS 3 Xrotation Yrotation Zrotation
        JOINT rKnee
        {
            OFFSET   0.000000  -0.410000   0.000000
            CHANNELS 3 Xrotation Yrotation Zrotation
            JOINT rAnkle
            {
                OFFSET   0.000000  -0.390000   0.000000
                CHANNELS 3 Xrotation Yrotation Zrotation
                JOINT rToeJoint
                {
                    OFFSET   0.000000  -0.050000   0.130000
                    CHANNELS 3 Xrotation Yrotation Zrotation
                    End Site
                    {
                        OFFSET  -0.010000   0.002000   0.060000
                    }
                }
            }
        }
    }
    JOINT lHip
    {
        OFFSET   0.100000  -0.051395   0.000000
        CHANNELS 3 Xrotation Yrotation Zrotation
        JOINT lKnee
        {
            OFFSET   0.000000  -0.410000   0.000000
            CHANNELS 3 Xrotation Yrotation Zrotation
            JOINT lAnkle
            {
                OFFSET   0.000000  -0.390000   0.000000
                CHANNELS 3 Xrotation Yrotation Zrotation
                JOINT lToeJoint
                {
                    OFFSET   0.000000  -0.050000   0.130000
                    CHANNELS 3 Xrotation Yrotation Zrotation
                    End Site
                    {
                        OFFSET   0.010000   0.002000   0.060000
                    }
                }
            }
        }
    }
}
MOTION
Frames: 5
Frame Time:   0.008333
 -2.266257   0.929786   3.651756  -2.779172 -41.336297  -7.864878  25.684097  -0.253358   2.551298   6.470287   0.773394  -0.300816   1.109473  -0.971287  -1.452728   0.272808   8.507743  -5.342381  -4.352575   9.019822  49.811311 179.992468  75.299923 -179.995724   1.757691   2.432360  -4.683328   2.647564  -4.421751   6.330682   8.266267  -8.928334 -44.054176 179.979419 -73.223795 179.986617   0.428093  -4.688175   4.945091 -40.544566  -5.037147  -8.096683  84.346479  -0.007252  -0.048656  15.312551   2.714666   8.113862  -9.919516  -0.010628  -0.028580 -12.696087  -0.764295  11.328056  40.292568  -0.001984   0.010788   6.877861   1.686007  -4.334553 -46.714169  -0.028950  -0.000639
 -2.264268   0.934712   3.651986  -2.684205 -41.395496  -7.921252  26.096899  -0.328364   2.863204   6.388536   0.610036  -0.136057   1.063392  -0.986790  -1.595328   0.407910   8.374823  -5.431665  -4.006436   8.831631  49.912687 179.993852  75.322056 -179.996571   1.749342   2.259456  -4.573830   2.516894  -4.692981   6.543181   7.747626  -9.144064 -43.910332 179.981794 -73.126676 179.988250   0.424212  -4.640074   4.850159 -41.514202  -5.028770  -8.189273  84.616351  -0.006236  -0.039220  14.731259   2.555878   8.260661  -9.142791  -0.010133  -0.023616 -12.630503  -0.759926  11.454194  39.407457  -0.001533   0.008881   8.660528   1.102323  -4.811851 -46.371421  -0.021138  -0.000586
 -2.262304   0.940369   3.652224  -2.446287 -41.447494  -7.776659  26.421197  -0.363554   3.168873   6.284510   0.462949  -0.011920   1.028335  -0.998093  -1.742672   0.550533   8.221321  -5.570209  -3.662386   8.650588  49.995723 179.995056  75.328664 -179.997263   1.740597   2.120392  -4.428187   2.402681  -4.934390   6.770522   7.269393  -9.352140 -43.784015 179.983599 -73.014057 179.989555   0.422958  -4.661215   4.737312 -42.360145  -5.021519  -8.194892  84.476475  -0.004825  -0.031401  14.170013   2.402943   8.394587  -8.446565  -0.009561  -0.018396 -12.655997  -0.749939  11.466007  38.361452  -0.001179   0.007447  10.882927   0.454729  -5.159771 -46.097215  -0.015431  -0.000840
 -2.260437   0.946199   3.652604  -2.139962 -41.501554  -7.541337  26.663812  -0.372675   3.501972   6.156429   0.342137   0.109704   1.001583  -1.006866  -1.882479   0.680610   8.059463  -5.748222  -3.338869   8.475351  50.052165 179.996036  75.326572 -179.997790   1.733688   2.010574  -4.273180   2.306334  -5.133124   7.005769   6.834693  -9.539126 -43.667557 179.985170 -72.895789 179.990807   0.424997  -4.734125   4.619493 -43.116622  -5.049853  -8.116131  84.253474  -0.003481  -0.025363  13.640704   2.259488   8.518485  -7.816441  -0.009102  -0.013691 -12.693000  -0.730870  11.417089  37.213410  -0.000973   0.006480  13.261984  -0.166941  -5.405958 -45.877834  -0.011309  -0.001070
 -2.258680   0.951896   3.653174  -1.800971 -41.556231  -7.257721  26.834471  -0.364757   3.864568   6.001080   0.245687   0.244868   0.978302  -1.014047  -2.010281   0.793948   7.896307  -5.950537  -3.040382   8.306351  50.087101 179.996841  75.318329 -179.998205   1.729059   1.928590  -4.136495   2.223983  -5.294300   7.245385   6.438813  -9.703789 -43.556476 179.986649 -72.777903 179.992089   0.428982  -4.832802   4.510717 -43.794733  -5.112751  -7.973633  84.042828  -0.002357  -0.020646  13.146049   2.125830   8.633541  -7.239747  -0.008724  -0.009701 -12.723880  -0.702457  11.327863  36.022964  -0.000917   0.005829  15.668326  -0.749043  -5.574437 -45.702313  -0.008317  -0.001210
